<?xml version="1.0" encoding="UTF-8" ?>
<!DOCTYPE svg PUBLIC "-//W3C//DTD SVG 1.1//EN" "http://www.w3.org/Graphics/SVG/1.1/DTD/svg11.dtd">
<svg width="512pt" height="512pt" viewBox="0 0 512 512" version="1.1" xmlns="http://www.w3.org/2000/svg">
<g id="#e2e2e2ff">
<path fill="#e2e2e2" opacity="1.00" d=" M 182.05 355.25 C 185.68 355.44 189.33 355.44 192.96 355.24 C 193.02 399.51 192.88 443.79 193.03 488.07 C 192.89 500.71 203.97 511.80 216.56 512.00 L 158.43 512.00 C 167.21 511.70 175.66 506.51 179.49 498.54 C 182.84 492.24 181.94 484.90 182.06 478.03 C 182.06 437.10 182.08 396.17 182.05 355.25 Z" />
</g>
<g id="#000000ff">
<path fill="#000000" opacity="1.00" d=" M 185.70 0.00 L 189.38 0.00 C 200.63 0.47 211.82 3.59 221.43 9.53 C 234.43 17.42 244.58 29.96 249.39 44.41 C 254.81 60.30 253.77 78.30 246.50 93.44 C 240.44 106.26 230.03 116.94 217.43 123.44 C 203.34 130.75 186.53 132.58 171.16 128.59 C 153.64 124.19 138.28 112.01 129.87 96.03 C 122.96 83.25 120.67 68.10 123.24 53.83 C 125.91 38.24 134.64 23.87 147.04 14.10 C 157.95 5.35 171.76 0.51 185.70 0.00 Z" />
<path fill="#000000" opacity="1.00" d=" M 137.01 159.89 C 148.87 150.28 162.97 143.45 177.92 140.34 C 195.06 137.28 212.30 143.50 226.91 152.10 C 254.98 169.26 273.65 198.41 284.10 229.04 C 292.19 251.84 295.99 275.90 298.01 299.93 C 298.66 307.77 294.35 315.72 287.43 319.45 C 280.29 323.51 270.80 322.77 264.47 317.52 C 259.42 313.64 256.82 307.40 256.49 301.15 C 254.65 279.14 250.73 257.16 242.84 236.46 C 242.75 257.99 242.90 279.51 242.76 301.04 C 242.85 305.74 241.45 310.29 241.34 314.97 C 241.35 371.98 241.34 428.99 241.35 486.00 C 241.45 491.27 240.31 496.67 237.30 501.07 C 233.03 507.72 225.38 511.74 217.54 512.00 L 216.56 512.00 C 203.97 511.80 192.89 500.71 193.03 488.07 C 192.88 443.79 193.02 399.51 192.96 355.24 C 189.33 355.44 185.68 355.44 182.05 355.25 C 182.08 396.17 182.06 437.10 182.06 478.03 C 181.94 484.90 182.84 492.24 179.49 498.54 C 175.66 506.51 167.21 511.70 158.43 512.00 L 157.44 512.00 C 151.58 511.68 145.72 509.58 141.45 505.47 C 136.31 500.81 133.62 493.85 133.70 486.96 C 133.68 429.64 133.68 372.31 133.69 314.98 C 133.56 310.30 132.19 305.74 132.27 301.03 C 132.13 279.52 132.28 258.00 132.20 236.49 C 124.44 256.83 120.47 278.43 118.66 300.08 C 118.32 306.18 116.41 312.50 111.63 316.61 C 105.81 322.10 96.72 323.63 89.42 320.34 C 81.87 317.19 76.68 309.16 76.99 300.97 C 78.84 276.26 82.93 251.55 91.24 228.14 C 100.36 202.05 115.19 177.27 137.01 159.89 Z" />
<path fill="#000000" opacity="1.00" d=" M 359.54 225.79 C 370.65 223.74 382.61 226.45 391.50 233.49 C 400.38 240.23 406.23 250.87 406.97 262.01 C 407.94 272.80 404.20 283.91 396.92 291.93 C 390.10 299.61 380.21 304.56 369.94 305.18 C 357.72 306.22 345.22 301.11 337.12 291.93 C 329.35 283.40 325.71 271.32 327.31 259.90 C 329.22 243.13 342.97 228.78 359.54 225.79 Z" />
<path fill="#000000" opacity="1.00" d=" M 331.91 326.84 C 340.39 319.29 350.57 313.26 361.86 311.26 C 373.15 309.51 384.37 314.09 393.61 320.25 C 408.10 329.74 418.12 344.71 424.47 360.58 C 430.11 374.75 433.15 389.83 434.58 404.98 C 435.74 410.38 434.98 416.72 430.26 420.23 C 425.09 425.02 416.02 423.56 412.12 417.87 C 409.61 414.49 409.50 410.07 409.01 406.06 C 407.98 393.98 405.19 382.11 401.24 370.67 C 400.59 382.77 401.85 394.95 400.19 406.99 C 400.10 435.31 400.20 463.63 400.15 491.96 C 400.38 498.39 396.12 504.71 389.93 506.63 C 383.64 508.84 376.11 506.11 372.66 500.42 C 370.83 497.66 370.34 494.27 370.37 491.02 C 370.38 471.61 370.37 452.19 370.37 432.77 C 368.13 432.84 365.89 432.84 363.65 432.78 C 363.63 452.78 363.71 472.79 363.62 492.79 C 363.68 500.22 357.38 506.88 349.99 507.34 C 341.87 508.23 333.99 501.27 333.96 493.08 C 333.79 464.35 334.01 435.62 333.86 406.89 C 332.23 394.82 333.43 382.62 332.86 370.49 C 328.82 381.94 326.07 393.85 325.03 405.96 C 324.61 409.55 324.46 413.34 322.76 416.61 C 319.93 421.88 313.02 424.48 307.42 422.43 C 302.49 420.49 298.72 415.39 299.03 410.00 C 299.90 398.21 301.66 386.47 304.75 375.04 C 309.63 357.11 318.12 339.62 331.91 326.84 Z" />
</g>
</svg>
