<?xml version="1.0" encoding="utf-8"?>
<!-- Generator: Adobe Illustrator 17.0.0, SVG Export Plug-In . SVG Version: 6.00 Build 0)  -->
<!DOCTYPE svg PUBLIC "-//W3C//DTD SVG 1.1//EN" "http://www.w3.org/Graphics/SVG/1.1/DTD/svg11.dtd">
<svg version="1.1" id="Capa_1" xmlns="http://www.w3.org/2000/svg" xmlns:xlink="http://www.w3.org/1999/xlink" x="0px" y="0px"
	 width="595px" height="643px" viewBox="0 0 595 643" enable-background="new 0 0 595 643" xml:space="preserve">
<g id="_x23_000000ff">
	<path d="M240.723,113.4h2.971c9.084,0.379,18.119,2.899,25.878,7.695c10.497,6.371,18.692,16.496,22.576,28.163
		c4.376,12.83,3.537,27.364-2.333,39.588c-4.893,10.351-13.298,18.975-23.472,24.223c-11.377,5.902-24.95,7.38-37.36,4.158
		c-14.146-3.553-26.548-13.387-33.339-26.29c-5.579-10.319-7.428-22.551-5.353-34.073c2.156-12.588,9.205-24.191,19.217-32.079
		C218.317,117.72,229.467,113.812,240.723,113.4z"/>
	<path d="M201.409,242.5c9.576-7.759,20.961-13.274,33.032-15.785c13.839-2.471,27.759,2.551,39.556,9.495
		c22.665,13.855,37.739,37.392,46.177,62.124c6.532,18.409,9.6,37.836,11.231,57.239c0.525,6.33-2.955,12.749-8.543,15.761
		c-5.765,3.278-13.428,2.681-18.539-1.558c-4.078-3.133-6.177-8.171-6.443-13.218c-1.486-17.771-4.651-35.519-11.021-52.233
		c-0.073,17.384,0.048,34.76-0.065,52.144c0.073,3.795-1.058,7.469-1.147,11.247c0.008,46.031,0,92.063,0.008,138.094
		c0.081,4.255-0.84,8.615-3.27,12.168c-3.448,5.369-9.625,8.615-15.955,8.825h-0.791c-10.166-0.161-19.112-9.116-18.999-19.322
		c-0.121-35.753-0.008-71.506-0.057-107.251c-2.931,0.161-5.878,0.161-8.809,0.008c0.024,33.04,0.008,66.088,0.008,99.136
		c-0.097,5.547,0.63,11.474-2.075,16.56c-3.092,6.435-9.915,10.626-17.004,10.868h-0.799c-4.732-0.258-9.463-1.954-12.911-5.272
		c-4.15-3.763-6.322-9.382-6.258-14.946c-0.016-46.282-0.016-92.572-0.008-138.862c-0.105-3.779-1.211-7.461-1.147-11.264
		c-0.113-17.368,0.008-34.744-0.057-52.111c-6.266,16.423-9.471,33.864-10.933,51.344c-0.275,4.925-1.817,10.028-5.676,13.347
		c-4.699,4.433-12.039,5.668-17.933,3.012c-6.096-2.543-10.287-9.027-10.036-15.64c1.494-19.952,4.796-39.903,11.506-58.805
		C171.817,276.541,183.791,256.533,201.409,242.5z"/>
	<path d="M381.086,295.709c8.971-1.655,18.627,0.533,25.805,6.217c7.17,5.442,11.893,14.033,12.491,23.028
		c0.783,8.712-2.237,17.683-8.115,24.158c-5.507,6.201-13.492,10.198-21.784,10.698c-9.867,0.84-19.96-3.286-26.5-10.698
		c-6.274-6.887-9.213-16.641-7.921-25.862C356.605,309.71,367.707,298.124,381.086,295.709z"/>
	<path d="M358.777,377.3c6.847-6.096,15.067-10.965,24.182-12.58c9.116-1.413,18.175,2.285,25.636,7.259
		c11.7,7.662,19.79,19.75,24.917,32.564c4.554,11.441,7.008,23.617,8.163,35.85c0.937,4.36,0.323,9.479-3.488,12.313
		c-4.174,3.868-11.498,2.689-14.647-1.906c-2.027-2.729-2.115-6.298-2.511-9.536c-0.832-9.754-3.084-19.338-6.274-28.575
		c-0.525,9.77,0.493,19.604-0.848,29.326c-0.073,22.866,0.008,45.733-0.032,68.607c0.186,5.192-3.254,10.295-8.252,11.845
		c-5.079,1.784-11.159-0.42-13.944-5.014c-1.478-2.229-1.873-4.966-1.849-7.59c0.008-15.672,0-31.352,0-47.033
		c-1.809,0.057-3.617,0.057-5.426,0.008c-0.016,16.149,0.048,32.305-0.024,48.454c0.048,5.999-5.038,11.377-11.005,11.748
		c-6.556,0.719-12.919-4.901-12.943-11.514c-0.137-23.197,0.04-46.395-0.081-69.592c-1.316-9.746-0.347-19.596-0.807-29.39
		c-3.262,9.245-5.482,18.862-6.322,28.639c-0.339,2.899-0.46,5.959-1.833,8.599c-2.285,4.255-7.864,6.354-12.386,4.699
		c-3.981-1.566-7.025-5.684-6.774-10.036c0.702-9.52,2.124-18.999,4.618-28.228C340.788,401.741,347.643,387.619,358.777,377.3z"/>
</g>
</svg>
