<?xml version="1.0" encoding="utf-8"?>
<!-- Generator: Adobe Illustrator 17.0.0, SVG Export Plug-In . SVG Version: 6.00 Build 0)  -->
<!DOCTYPE svg PUBLIC "-//W3C//DTD SVG 1.1//EN" "http://www.w3.org/Graphics/SVG/1.1/DTD/svg11.dtd">
<svg version="1.1" id="Capa_1" xmlns="http://www.w3.org/2000/svg" xmlns:xlink="http://www.w3.org/1999/xlink" x="0px" y="0px"
	 width="595px" height="643px" viewBox="-47.5 -65.5 595 643" enable-background="new -47.5 -65.5 595 643" xml:space="preserve">
<g id="_x23_e2e2e2ff">
	<path fill="#E2E2E2" d="M182.05,355.25c3.63,0.19,7.28,0.19,10.91-0.01c0.06,44.27-0.08,88.55,0.07,132.83
		c-0.14,12.64,10.94,23.73,23.53,23.93h-58.13c8.78-0.3,17.23-5.49,21.06-13.46c3.35-6.3,2.45-13.64,2.57-20.51
		C182.06,437.1,182.08,396.17,182.05,355.25z"/>
</g>
<g id="_x23_000000ff">
	<path d="M185.7,0h3.68c11.25,0.47,22.44,3.59,32.05,9.53c13,7.89,23.15,20.43,27.96,34.88c5.42,15.89,4.38,33.89-2.89,49.03
		c-6.06,12.82-16.47,23.5-29.07,30c-14.09,7.31-30.9,9.14-46.27,5.15c-17.52-4.4-32.88-16.58-41.29-32.56
		c-6.91-12.78-9.2-27.93-6.63-42.2c2.67-15.59,11.4-29.96,23.8-39.73C157.95,5.35,171.76,0.51,185.7,0z"/>
	<path d="M137.01,159.89c11.86-9.61,25.96-16.44,40.91-19.55c17.14-3.06,34.38,3.16,48.99,11.76
		c28.07,17.16,46.74,46.31,57.19,76.94c8.09,22.8,11.89,46.86,13.91,70.89c0.65,7.84-3.66,15.79-10.58,19.52
		c-7.14,4.06-16.63,3.32-22.96-1.93c-5.05-3.88-7.65-10.12-7.98-16.37c-1.84-22.01-5.76-43.99-13.65-64.69
		c-0.09,21.53,0.06,43.05-0.08,64.58c0.09,4.7-1.31,9.25-1.42,13.93c0.01,57.01,0,114.02,0.01,171.03
		c0.1,5.27-1.04,10.67-4.05,15.07c-4.27,6.65-11.92,10.67-19.76,10.93h-0.98c-12.59-0.2-23.67-11.29-23.53-23.93
		c-0.15-44.28-0.01-88.56-0.07-132.83c-3.63,0.2-7.28,0.2-10.91,0.01c0.03,40.92,0.01,81.85,0.01,122.78
		c-0.12,6.87,0.78,14.21-2.57,20.51c-3.83,7.97-12.28,13.16-21.06,13.46h-0.99c-5.86-0.32-11.72-2.42-15.99-6.53
		c-5.14-4.66-7.83-11.62-7.75-18.51c-0.02-57.32-0.02-114.65-0.01-171.98c-0.13-4.68-1.5-9.24-1.42-13.95
		c-0.14-21.51,0.01-43.03-0.07-64.54c-7.76,20.34-11.73,41.94-13.54,63.59c-0.34,6.1-2.25,12.42-7.03,16.53
		c-5.82,5.49-14.91,7.02-22.21,3.73c-7.55-3.15-12.74-11.18-12.43-19.37c1.85-24.71,5.94-49.42,14.25-72.83
		C100.36,202.05,115.19,177.27,137.01,159.89z"/>
	<path d="M359.54,225.79c11.11-2.05,23.07,0.66,31.96,7.7c8.88,6.74,14.73,17.38,15.47,28.52c0.97,10.79-2.77,21.9-10.05,29.92
		c-6.82,7.68-16.71,12.63-26.98,13.25c-12.22,1.04-24.72-4.07-32.82-13.25c-7.77-8.53-11.41-20.61-9.81-32.03
		C329.22,243.13,342.97,228.78,359.54,225.79z"/>
	<path d="M331.91,326.84c8.48-7.55,18.66-13.58,29.95-15.58c11.29-1.75,22.51,2.83,31.75,8.99c14.49,9.49,24.51,24.46,30.86,40.33
		c5.64,14.17,8.68,29.25,10.11,44.4c1.16,5.4,0.4,11.74-4.32,15.25c-5.17,4.79-14.24,3.33-18.14-2.36
		c-2.51-3.38-2.62-7.8-3.11-11.81c-1.03-12.08-3.82-23.95-7.77-35.39c-0.65,12.1,0.61,24.28-1.05,36.32
		c-0.09,28.32,0.01,56.64-0.04,84.97c0.23,6.43-4.03,12.75-10.22,14.67c-6.29,2.21-13.82-0.52-17.27-6.21
		c-1.83-2.76-2.32-6.15-2.29-9.4c0.01-19.41,0-38.83,0-58.25c-2.24,0.07-4.48,0.07-6.72,0.01c-0.02,20,0.06,40.01-0.03,60.01
		c0.06,7.43-6.24,14.09-13.63,14.55c-8.12,0.89-16-6.07-16.03-14.26c-0.17-28.73,0.05-57.46-0.1-86.19
		c-1.63-12.07-0.43-24.27-1-36.4c-4.04,11.45-6.79,23.36-7.83,35.47c-0.42,3.59-0.57,7.38-2.27,10.65
		c-2.83,5.27-9.74,7.87-15.34,5.82c-4.93-1.94-8.7-7.04-8.39-12.43c0.87-11.79,2.63-23.53,5.72-34.96
		C309.63,357.11,318.12,339.62,331.91,326.84z"/>
</g>
</svg>
