<?xml version="1.0" encoding="utf-8"?>
<!-- Generator: Adobe Illustrator 17.0.0, SVG Export Plug-In . SVG Version: 6.00 Build 0)  -->
<!DOCTYPE svg PUBLIC "-//W3C//DTD SVG 1.1//EN" "http://www.w3.org/Graphics/SVG/1.1/DTD/svg11.dtd">
<svg version="1.1" id="Capa_1" xmlns="http://www.w3.org/2000/svg" xmlns:xlink="http://www.w3.org/1999/xlink" x="0px" y="0px"
	 width="362px" height="255px" viewBox="0 0 362 255" enable-background="new 0 0 362 255" xml:space="preserve">
<g id="_x23_010101ff">
	<path fill="#010101" d="M63.57,39.75c13.61-3.34,28.72,5.69,32.03,19.33c3.72,12.37-2.94,26.59-14.7,31.8
		c-9.73,4.66-22.17,2.7-29.95-4.79c-6.67-6.1-9.84-15.69-8.22-24.56C44.48,50.94,53.07,41.96,63.57,39.75z"/>
	<path fill="#010101" d="M266.36,40.67c13.47-5.13,29.98,2.59,34.57,16.26c5.35,13.49-2.39,30.14-16.11,34.79
		c-13.84,5.56-30.97-2.81-35.19-17.07C244.96,61.21,252.79,45.09,266.36,40.67z"/>
	<path fill="#010101" d="M46.99,105.03c0.63-4.57,4.42-8.36,8.94-9.12c5.8-1.2,12.04,3.12,12.83,9.01
		c0.46,4.25-0.95,8.41-1.57,12.58c4.52,5.5,9.8,10.43,15.76,14.35c6.97-1.16,13.84-2.78,20.68-4.53c2.04-0.51,4.3-1.03,6.27,0.02
		c4.06,1.67,5.82,7.2,3.23,10.82c-1.87,3.12-5.82,3.41-8.98,4.3c-7.3,1.6-14.58,3.8-22.1,4.04c-7.35-0.68-12.8-6.38-18.12-10.94
		c-1.76,10.38-3.69,20.72-5.52,31.09c12.87-0.04,25.73-0.04,38.59-0.01c6.14-0.3,11.72,5.26,11.34,11.41
		c0.04,16.32,0.13,32.64,0.06,48.95c-0.1,6.52-7.1,11.75-13.39,10.03c-5.02-0.99-8.87-5.85-8.59-10.98
		c-0.19-12.43-0.07-24.87-0.17-37.31c-13.78,0-27.56,0.03-41.33-0.01c-6.5,0.13-11.95-6.47-10.6-12.84
		C38.49,152.26,42.73,128.64,46.99,105.03z"/>
	<path fill="#010101" d="M276.74,102.68c2.02-5.31,8.5-8.35,13.85-6.33c4.1,1.3,7.03,5.16,7.49,9.4
		c4.14,23.48,8.48,46.92,12.53,70.41c1.18,6.27-4.16,12.56-10.48,12.55c-13.84,0.05-27.67,0.04-41.51,0.04
		c0.03,12.43-0.04,24.86-0.06,37.3c0.2,5.78-4.74,11.16-10.56,11.25c-6.16,0.51-11.87-5.11-11.55-11.27
		c0.05-16.01,0.08-32.02,0.12-48.03c-0.34-6.18,5.31-11.74,11.47-11.36c12.82-0.03,25.64-0.03,38.47,0.01
		c-1.85-10.35-3.78-20.69-5.52-31.06c-5.53,4.67-11.24,10.75-18.97,10.92c-8.72-0.71-17.2-3.12-25.67-5.18
		c-3.7-0.75-6.37-4.62-5.7-8.34c0.57-4.21,5.22-7.33,9.32-5.97c7.3,1.8,14.6,3.66,22.03,4.81c5.81-3.92,11.17-8.63,15.47-14.17
		C277.48,112.71,274.81,107.6,276.74,102.68z"/>
	<path fill="#010101" d="M129.56,127.75c0.36-1.67-1.19-4.85,1.44-5.15c2.72-0.72,3.35,2.6,2.27,4.42c1.02,2.77,1.63,5.66,1.9,8.6
		c-2.42,0-4.84,0-7.27-0.01C128.19,132.93,128.83,130.33,129.56,127.75z"/>
	<path fill="#010101" d="M144.24,123.1c1.49-1.63,3.38,0.26,4.12,1.63c-0.28,0.53-0.86,1.6-1.14,2.13c1.17,2.79,1.86,5.76,2.15,8.77
		c-2.44,0-4.89,0-7.34-0.02c0.28-2.93,0.97-5.8,1.92-8.58C143.78,125.78,142.69,123.94,144.24,123.1z"/>
	<path fill="#010101" d="M204.79,127.04c-0.51-1.7-1.17-3.8,1.1-4.49c2.79-0.61,3.38,2.62,2.34,4.48c1.01,2.77,1.58,5.66,1.96,8.58
		c-2.48,0.01-4.95,0.01-7.42,0C203.15,132.69,203.8,129.82,204.79,127.04z"/>
	<path fill="#010101" d="M118.52,138.54c36.2,0.06,72.4-0.01,108.59,0.03c0,2.33,0,4.66-0.01,6.99c-36.2,0.02-72.4-0.03-108.6,0.02
		C118.5,143.23,118.51,140.89,118.52,138.54z"/>
	<path fill="#010101" d="M91.75,150.29c53.99,0.05,107.98,0.03,161.98,0.01c0.02,2.96,0.01,5.93,0.02,8.9
		c-10.73-0.02-21.45,0.07-32.18-0.05c2.4,3.47,4.22,7.48,4.2,11.78c0.05,22.13,0.01,44.26,0.02,66.39c-2.47,0-4.94-0.01-7.41,0
		c-0.03-22.1,0.05-44.21-0.03-66.32c-0.08-6.38-5.9-11.92-12.27-11.78c-22.34-0.01-44.68-0.04-67.02,0.01
		c-6.58,0.02-12.28,6.19-11.9,12.74c0.01,21.78-0.02,43.56,0,65.35c-2.47-0.01-4.94,0-7.41,0.01c-0.02-22.11,0.01-44.21,0-66.32
		c-0.05-4.33,1.83-8.34,4.18-11.87c-10.73,0.15-21.46,0.02-32.18,0.07C91.75,156.24,91.75,153.26,91.75,150.29z"/>
</g>
</svg>
