<?xml version="1.0" encoding="utf-8"?>
<!-- Generator: Adobe Illustrator 17.0.0, SVG Export Plug-In . SVG Version: 6.00 Build 0)  -->
<!DOCTYPE svg PUBLIC "-//W3C//DTD SVG 1.1//EN" "http://www.w3.org/Graphics/SVG/1.1/DTD/svg11.dtd">
<svg version="1.1" id="Capa_1" xmlns="http://www.w3.org/2000/svg" xmlns:xlink="http://www.w3.org/1999/xlink" x="0px" y="0px"
	 width="333px" height="336px" viewBox="0 0 333 336" enable-background="new 0 0 333 336" xml:space="preserve">
<g id="_x23_000000ff">
	<path d="M136.74,16.14c21.5,0,43.01-0.01,64.51,0c0.02,7.15-0.01,14.3,0.01,21.46c-7.17,0.01-14.34-0.01-21.51,0.01
		c-0.03,7.3,0.06,14.6-0.05,21.9c22.87,2.02,45.3,9.61,64.29,22.6c25.86,17.37,45.4,43.95,54.03,73.91c7.68,26.32,7.04,55-1.9,80.93
		c-9.67,28.45-29.28,53.35-54.57,69.57c-24.22,15.75-53.66,23.15-82.44,20.96c-28.88-2.05-56.95-13.86-78.64-33.04
		c-23.81-20.74-39.94-50.13-44.4-81.41c-3.86-26.18,0.16-53.48,11.66-77.33c12.82-26.88,34.83-49.26,61.53-62.46
		c15.26-7.71,32.04-12.18,49.04-13.71c-0.1-7.31-0.03-14.62-0.05-21.93c-7.16-0.01-14.33,0.02-21.5-0.02
		C136.75,30.43,136.75,23.28,136.74,16.14 M152.52,81.83c-24.43,3.49-47.53,15.34-64.63,33.12c-19.46,19.86-30.97,47.2-31.68,74.98
		c-0.89,25.19,6.96,50.59,22.06,70.79c15.47,20.98,38.43,36.3,63.79,42.39c24.76,6.09,51.58,3.55,74.69-7.27
		c24.71-11.43,44.91-32.18,55.74-57.16c12.01-27.4,12.48-59.61,1.26-87.35c-9.66-24.24-28.07-44.82-51.04-57.18
		C201.45,82.59,176.43,78.31,152.52,81.83z"/>
	<path d="M259.95,72.35c5.51-5.91,11.38-11.48,17.04-17.25c10.13,10.15,20.32,20.25,30.41,30.44c-6.09,6.06-12.14,12.14-18.23,18.2
		C281.31,91.73,271.55,80.85,259.95,72.35z"/>
	<path d="M160.95,96.75c5.38-0.03,10.75,0,16.13-0.01c-0.93,7.17-1.79,14.35-2.72,21.53c-3.58-0.01-7.15-0.01-10.72,0.01
		C162.73,111.1,161.81,103.93,160.95,96.75z"/>
	<path d="M218.41,136.48c4.47-5.69,8.83-11.45,13.35-17.08c3.75,3.83,7.65,7.53,11.32,11.45c-5.72,4.38-11.35,8.86-17.07,13.24
		C223.47,141.55,220.93,139.02,218.41,136.48z"/>
	<path d="M96.81,128.87c2.58-2.53,5.01-5.24,7.79-7.57c19.04,17.44,38.47,34.47,57.66,51.75c4.39-1.21,9.13-1.48,13.48,0.04
		c7.44,2.39,13.27,9.15,14.45,16.89c1.45,8.05-2.26,16.7-9.05,21.24c-6.88,4.85-16.63,4.99-23.66,0.38
		c-8.17-5.02-11.94-15.76-8.92-24.83C131.34,167.44,114.03,148.19,96.81,128.87z"/>
	<path d="M72.29,201.58c-0.05-5.39-0.09-10.79,0.02-16.17c7.14,0.97,14.3,1.79,21.44,2.73c0,3.57,0,7.15,0,10.72
		C86.6,199.79,79.44,200.63,72.29,201.58z"/>
	<path d="M244.25,188.14c7.15-0.95,14.32-1.76,21.47-2.73c0.04,5.39,0.04,10.77,0.01,16.16c-7.16-0.92-14.33-1.78-21.49-2.71
		C244.25,195.29,244.26,191.71,244.25,188.14z"/>
	<path d="M94.89,256.23c5.7-4.45,11.4-8.9,17.14-13.32c2.51,2.55,5.05,5.06,7.57,7.6c-4.44,5.7-8.86,11.4-13.31,17.09
		C102.48,263.82,98.72,259.98,94.89,256.23z"/>
	<path d="M218.41,250.54c2.51-2.56,5.07-5.09,7.6-7.63c5.72,4.41,11.41,8.86,17.1,13.3c-3.8,3.8-7.59,7.6-11.39,11.4
		C227.28,261.92,222.86,256.21,218.41,250.54z"/>
	<path d="M160.94,290.26c0.89-7.18,1.77-14.35,2.71-21.52c3.57-0.01,7.14,0,10.71-0.01c0.91,7.18,1.81,14.36,2.69,21.54
		C171.68,290.26,166.31,290.27,160.94,290.26z"/>
</g>
</svg>
