<?xml version="1.0" encoding="utf-8"?>
<!-- Generator: Adobe Illustrator 17.0.0, SVG Export Plug-In . SVG Version: 6.00 Build 0)  -->
<!DOCTYPE svg PUBLIC "-//W3C//DTD SVG 1.1//EN" "http://www.w3.org/Graphics/SVG/1.1/DTD/svg11.dtd">
<svg version="1.1" id="Capa_1" xmlns="http://www.w3.org/2000/svg" xmlns:xlink="http://www.w3.org/1999/xlink" x="0px" y="0px"
	 width="333px" height="336px" viewBox="0 0 333 336" enable-background="new 0 0 333 336" xml:space="preserve">
<g id="_x23_000000ff">
	<path d="M145.853,57.568c15.785,0,31.578-0.007,47.363,0c0.015,5.249-0.007,10.499,0.007,15.756
		c-5.264,0.007-10.528-0.007-15.792,0.007c-0.022,5.36,0.044,10.719-0.037,16.079c16.791,1.483,33.259,7.056,47.201,16.593
		c18.986,12.753,33.332,32.268,39.668,54.264c5.639,19.324,5.169,40.381-1.395,59.418c-7.1,20.888-21.497,39.169-40.065,51.078
		c-17.782,11.564-39.397,16.997-60.527,15.389c-21.203-1.505-41.812-10.176-57.737-24.258
		c-17.481-15.227-29.324-36.805-32.598-59.771c-2.834-19.221,0.117-39.265,8.561-56.775c9.412-19.735,25.572-36.166,45.175-45.858
		c11.204-5.661,23.524-8.942,36.005-10.066c-0.073-5.367-0.022-10.734-0.037-16.101c-5.257-0.007-10.521,0.015-15.785-0.015
		C145.86,68.059,145.86,62.81,145.853,57.568 M157.438,105.797c-17.936,2.562-34.896,11.263-47.451,24.316
		c-14.287,14.581-22.738,34.654-23.259,55.05c-0.653,18.494,5.11,37.143,16.196,51.974c11.358,15.403,28.215,26.651,46.834,31.122
		c18.179,4.471,37.87,2.606,54.837-5.338c18.142-8.392,32.973-23.626,40.924-41.966c8.818-20.117,9.163-43.765,0.925-64.132
		c-7.092-17.797-20.609-32.907-37.473-41.981C193.362,106.355,174.993,103.212,157.438,105.797z"/>
	<path d="M236.313,98.837c4.045-4.339,8.355-8.429,12.511-12.665c7.437,7.452,14.919,14.867,22.327,22.349
		c-4.471,4.449-8.913,8.913-13.384,13.362C251.995,113.065,244.829,105.077,236.313,98.837z"/>
	<path d="M163.627,116.751c3.95-0.022,7.893,0,11.843-0.007c-0.683,5.264-1.314,10.536-1.997,15.807
		c-2.628-0.007-5.249-0.007-7.871,0.007C164.934,127.287,164.259,122.022,163.627,116.751z"/>
	<path d="M205.814,145.92c3.282-4.178,6.483-8.407,9.801-12.54c2.753,2.812,5.617,5.528,8.311,8.406
		c-4.2,3.216-8.333,6.505-12.533,9.721C209.529,149.643,207.664,147.785,205.814,145.92z"/>
	<path d="M116.536,140.333c1.894-1.858,3.678-3.847,5.719-5.558c13.979,12.804,28.244,25.308,42.334,37.994
		c3.223-0.888,6.703-1.087,9.897,0.029c5.462,1.755,9.743,6.718,10.609,12.401c1.065,5.91-1.659,12.261-6.644,15.594
		c-5.051,3.561-12.21,3.664-17.371,0.279c-5.998-3.686-8.766-11.571-6.549-18.23C141.888,168.651,129.179,154.518,116.536,140.333z"
		/>
	<path d="M98.534,193.716c-0.037-3.957-0.066-7.922,0.015-11.872c5.242,0.712,10.499,1.314,15.741,2.004c0,2.621,0,5.249,0,7.871
		C109.04,192.402,103.783,193.019,98.534,193.716z"/>
	<path d="M224.786,183.849c5.249-0.697,10.514-1.292,15.763-2.004c0.029,3.957,0.029,7.907,0.007,11.865
		c-5.257-0.675-10.521-1.307-15.778-1.99C224.786,189.098,224.793,186.47,224.786,183.849z"/>
	<path d="M115.127,233.84c4.185-3.267,8.37-6.534,12.584-9.779c1.843,1.872,3.708,3.715,5.558,5.58
		c-3.26,4.185-6.505,8.37-9.772,12.547C120.699,239.413,117.939,236.593,115.127,233.84z"/>
	<path d="M205.814,229.663c1.843-1.88,3.722-3.737,5.58-5.602c4.2,3.238,8.377,6.505,12.555,9.765c-2.79,2.79-5.573,5.58-8.362,8.37
		C212.326,238.018,209.081,233.825,205.814,229.663z"/>
	<path d="M163.62,258.825c0.653-5.271,1.3-10.536,1.99-15.8c2.621-0.007,5.242,0,7.863-0.007c0.668,5.271,1.329,10.543,1.975,15.815
		C171.505,258.825,167.563,258.832,163.62,258.825z"/>
</g>
</svg>
